<svg width="123" height="127" viewBox="0 0 123 127" fill="none" xmlns="http://www.w3.org/2000/svg">
<path d="M9.12903 103.444H80.975L59.8344 127H0L9.12903 103.444Z" fill="#FF7612"/>
<path d="M98.4 113.931H100.152C101.157 113.931 101.835 113.979 102.186 114.077C102.688 114.214 103.099 114.496 103.418 114.925C103.737 115.349 103.896 115.884 103.896 116.529C103.896 117.179 103.741 117.716 103.43 118.14C103.119 118.56 102.69 118.843 102.144 118.989C101.745 119.095 101 119.148 99.9071 119.148H99.2791V123.927H98.4V113.931ZM99.2791 114.879V118.193L100.768 118.213C101.37 118.213 101.811 118.153 102.09 118.034C102.369 117.91 102.588 117.714 102.748 117.444C102.907 117.17 102.987 116.865 102.987 116.529C102.987 116.202 102.907 115.904 102.748 115.634C102.588 115.36 102.377 115.166 102.114 115.051C101.855 114.936 101.428 114.879 100.834 114.879H99.2791Z" fill="black"/>
<path d="M105.702 113.931H107.454C108.431 113.931 109.093 113.975 109.44 114.063C109.962 114.196 110.387 114.481 110.714 114.918C111.041 115.352 111.204 115.886 111.204 116.523C111.204 117.053 111.091 117.519 110.863 117.921C110.64 118.324 110.319 118.629 109.9 118.836C109.482 119.04 108.904 119.143 108.166 119.148L111.33 123.927H110.241L107.084 119.148H106.581V123.927H105.702V113.931ZM106.581 114.885V118.2L108.094 118.213C108.68 118.213 109.113 118.151 109.392 118.028C109.675 117.904 109.894 117.707 110.05 117.438C110.209 117.164 110.289 116.859 110.289 116.523C110.289 116.196 110.209 115.9 110.05 115.634C109.89 115.365 109.681 115.173 109.422 115.058C109.163 114.943 108.732 114.885 108.13 114.885H106.581Z" fill="black"/>
<path d="M117.286 113.685C118.618 113.685 119.732 114.178 120.629 115.164C121.526 116.149 121.975 117.362 121.975 118.803C121.975 120.231 121.526 121.442 120.629 122.436C119.736 123.43 118.646 123.927 117.358 123.927C116.054 123.927 114.954 123.432 114.057 122.443C113.16 121.453 112.711 120.255 112.711 118.85C112.711 117.913 112.915 117.044 113.321 116.244C113.732 115.444 114.29 114.819 114.996 114.368C115.701 113.913 116.465 113.685 117.286 113.685ZM117.328 114.64C116.678 114.64 116.062 114.828 115.48 115.204C114.898 115.579 114.444 116.085 114.117 116.722C113.79 117.358 113.626 118.067 113.626 118.85C113.626 120.007 113.987 120.986 114.709 121.786C115.434 122.582 116.308 122.979 117.328 122.979C118.01 122.979 118.64 122.796 119.218 122.429C119.8 122.062 120.253 121.561 120.576 120.924C120.903 120.288 121.066 119.581 121.066 118.803C121.066 118.03 120.903 117.331 120.576 116.708C120.253 116.081 119.796 115.579 119.206 115.204C118.616 114.828 117.99 114.64 117.328 114.64Z" fill="black"/>
<path d="M96.35 111.637L61.5 32.7742L25.625 127H0L49.2174 0H73.8L123 111.637H96.35Z" fill="#FF7612"/>
<path d="M9.12903 103.444H80.975L59.8344 127H0L9.12903 103.444Z" fill="#FF7612"/>
<path d="M73.8 0C93.0138 43.597 103.786 68.0401 123 111.637H96.35L61.5 32.7742L73.8 0Z" fill="#AF622A"/>
</svg>
